<?xml version="1.0" encoding="utf-8"?>
<!-- Generator: Adobe Illustrator 22.1.0, SVG Export Plug-In . SVG Version: 6.00 Build 0)  -->
<svg version="1.1" id="Layer_1" xmlns="http://www.w3.org/2000/svg" xmlns:xlink="http://www.w3.org/1999/xlink" x="0px" y="0px"
	 viewBox="0 0 841.9 595.3" style="enable-background:new 0 0 841.9 595.3;" xml:space="preserve">
<style type="text/css">
	.st0{fill:#425AA8;}
	.st1{fill:#ED5F2C;}
	.st2{fill:#5A291E;}
	.st3{fill:#AE4D38;}
	.st4{fill:#8F3B28;}
	.st5{fill:#B55E4E;}
	.st6{fill:#C97861;}
	.st7{fill:none;stroke:#000000;stroke-miterlimit:10;}
	.st8{fill:#FFFFFF;}
	.st9{fill:none;stroke:#000000;stroke-width:11;stroke-miterlimit:10;}
	.st10{font-family:'LibelSuitRg-Regular';}
	.st11{font-size:30.0873px;}
</style>
<g>
	<g>
		<g>
			<path d="M228.8,414.6c0-1.1,0.9-2,1.9-2c2.2,0.1,3.3,0.1,5.5,0.2c1,0,1.9,1,1.9,2.1c0,2.9,0,4.4,0,7.3
				c-0.1,9.8-7.5,18.8-17.3,18.8c-10.2,0-17.3-9.8-17.3-19.7c0-16.6,0-33.2,0-49.8c-0.7-9,7.8-19.1,17.3-17.7
				c10.1,1.5,17.2,10.8,17.3,20.8c0,2.9,0,4.4,0,7.3c0,1.1-0.9,2-1.9,1.9c-2.2-0.2-3.3-0.3-5.5-0.4c-1-0.1-1.9-1.1-1.9-2.2
				c0-3,0-4.4,0-7.4c0-4.9-3.7-9.3-8.3-9.6c-4.4-0.4-7.9,3.5-7.9,8.4c0,16.4,0,32.7,0,49.1c0,5,3.7,9.1,8.3,9.1
				c4.4,0,7.9-4.1,7.9-8.9C228.8,419,228.8,417.5,228.8,414.6C228.8,414.6,228.8,414.6,228.8,414.6z"/>
			<path d="M280.5,388c0,8.6-5.9,15.4-13.9,16.7c4.5,11,9.1,22.1,13.7,33.1c0.5,1.2-0.3,2.6-1.6,2.6c-2.4,0-3.6,0-6,0
				c-0.8,0-1.5-0.4-1.7-1.2c-4.8-11.5-9.6-23.1-14.2-34.7c-0.7,0-1,0-1.6-0.1c0,11.3,0,22.7,0,34c0,1.1-0.9,2-1.9,2
				c-2.2,0-3.3,0-5.5,0c-1,0-1.9-0.9-1.9-2c0-26.2,0-52.5,0-78.7c0-1.1,0.9-1.9,1.9-1.8c6.2,0.7,9.3,1.1,15.5,1.8
				c9.8,1.4,17.1,9.9,17.3,19.7C280.5,382.7,280.5,384.5,280.5,388C280.5,388,280.5,388,280.5,388z M271.3,378.6
				c0-4.6-3.6-8.8-8.1-9.2c-3.2-0.3-4.9-0.5-8.1-0.8c0,10.5,0,15.7,0,26.1c3.2,0.2,4.9,0.3,8.1,0.5c4.5,0.3,8.1-3.2,8.1-7.9
				C271.3,383.8,271.3,382.1,271.3,378.6z"/>
			<path d="M322.9,438.3c0.3,1.1-0.6,2.1-1.7,2.1c-2.3,0-3.5,0-5.8,0c-0.9,0-1.6-0.6-1.8-1.4c-1.8-9-2.7-13.6-4.5-22.8
				c-4.3-0.2-6.4-0.2-10.7-0.4c-1.8,9.2-2.7,13.8-4.5,23.1c-0.2,0.9-0.9,1.5-1.8,1.5c-2.3,0-3.5,0-5.8,0c-1.1,0-2-1.1-1.7-2.2
				c4.6-24.3,9.3-48.7,14.1-73c0.2-0.8,0.9-1.4,1.8-1.3c2.6,0.3,3.9,0.4,6.5,0.7c0.9,0.1,1.6,0.8,1.8,1.6
				C313.5,390.2,318.2,414.2,322.9,438.3C323,438.2,322.9,438.2,322.9,438.3z M307.2,407c-1.4-7.3-2.1-11-3.5-18.3
				c-1.4,7.2-2.1,10.7-3.5,18C303,406.8,304.4,406.9,307.2,407z"/>
			<path d="M355.8,404.4c4.1,3.2,6.8,7.8,6.8,12.8c0,3.1,0,4.6,0,7.6c0,8.6-7.8,15.6-17.3,15.6c-6.2,0-9.3,0-15.5,0
				c-1,0-1.9-0.8-1.9-1.8c0-23.3,0-46.6,0-69.9c0-1,0.9-1.7,1.9-1.6c5.3,0.6,7.9,0.9,13.2,1.5c9.6,1.1,17.3,9,17.3,17.7
				c0,3.1,0,4.6,0,7.7c0,4.1-1.7,7.6-4.5,10.3C355.8,404.3,355.8,404.4,355.8,404.4z M337.2,400c2.3,0.1,3.5,0.2,5.8,0.4
				c4.5,0.3,8.1-2.8,8.1-6.9c0-3.1,0-4.7,0-7.8c0-4.1-3.6-7.8-8.1-8.3c-2.3-0.2-3.5-0.3-5.8-0.6C337.2,386.1,337.2,390.8,337.2,400z
				 M353.4,416.9c0-4.1-3.6-7.6-8.1-7.8c-3.2-0.2-4.9-0.2-8.1-0.4c0,9.3,0,13.9,0,23.2c3.2,0,4.9,0.1,8.1,0.1
				c4.5,0.1,8.1-3.2,8.1-7.3C353.4,421.6,353.4,420,353.4,416.9z"/>
			<path d="M407.6,376.2c9.6,1.1,17.3,8.3,17.3,16c0,11.5,0,22.9,0,34.4c0,7.8-7.8,14.1-17.3,14c-6.2,0-9.3,0-15.5,0
				c-1,0-1.9-0.7-1.9-1.6c0-21.1,0-42.2,0-63.3c0-0.9,0.9-1.5,1.9-1.4C398.3,375,401.4,375.4,407.6,376.2z M399.5,382.9
				c0,16.6,0,33.1,0,49.7c3.2,0,4.9,0.1,8.1,0.1c4.5,0.1,8.1-2.9,8.1-6.6c0-11.6,0-23.3,0-34.9c0-3.7-3.6-7-8.1-7.5
				C404.4,383.4,402.7,383.3,399.5,382.9z"/>
			<path d="M467.4,380.2c0,0.9-0.9,1.7-1.9,1.8c-9.4,0.9-14.1,1.4-23.5,2.4c0,8.1,0,12.2,0,20.4c6.3-0.4,9.5-0.6,15.9-1
				c1-0.1,1.9,0.6,1.9,1.5c0,1.9,0,2.8,0,4.7c0,0.9-0.9,1.7-1.9,1.7c-6.3,0.3-9.5,0.5-15.9,0.8c0,8.1,0,12.2,0,20.4
				c9.4-0.1,14.1-0.2,23.5-0.3c1,0,1.9,0.7,1.9,1.6c0,1.9,0,2.9,0,4.8c0,0.9-0.9,1.6-1.9,1.6c-10.3,0-20.6,0-30.9,0
				c-1,0-1.9-0.7-1.9-1.5c0-19.9,0-39.7,0-59.6c0-0.8,0.9-1.6,1.9-1.8c10.3-1.2,20.6-2.3,30.9-3.5c1-0.1,1.9,0.5,1.9,1.4
				C467.4,377.5,467.4,378.4,467.4,380.2C467.4,380.3,467.4,380.3,467.4,380.2z"/>
			<path d="M508.9,394c0,1-0.9,1.8-1.9,1.9c-2.2,0.2-3.3,0.2-5.5,0.4c-1,0.1-1.9-0.6-1.9-1.6c0-3.7,0-5.5,0-9.2c0-4.1-3.7-7-8.3-6.5
				c-4.4,0.5-7.9,4.2-7.9,8.1c0,2.4,0,3.6,0,6c0,2.8,1.6,5.2,4.3,6.4c4.8,2.2,7.2,3.3,12.1,5.5c5.5,2.6,9,7.9,9,13.8
				c0,2.5,0,3.8,0,6.4c0,8.8-7.8,16-17.3,16c-9.6,0-17.2-6.9-17.2-15.3c0-3.5,0-5.2,0-8.7c0-0.9,0.9-1.7,1.9-1.7
				c2.2-0.1,3.3-0.1,5.5-0.2c1,0,1.9,0.7,1.9,1.6c0,3.6,0,5.4,0,8.9c0,4,3.7,7.1,8.3,7c4.4-0.1,7.9-3.6,7.9-7.6c0-2.5,0-3.7,0-6.2
				c0-2.8-1.6-5.4-4.3-6.7c-4.8-2.3-7.2-3.4-12.1-5.6c-5.5-2.5-9-7.5-9-13c0-2.4,0-3.6,0-6c0-8.4,7.8-16,17.3-17.1
				s17.2,5.3,17.2,14.2C508.9,388.4,508.9,390.2,508.9,394C508.9,393.9,508.9,393.9,508.9,394z"/>
			<path d="M524.2,440.4c-2.2,0-3.3,0-5.5,0c-1,0-1.9-0.8-1.9-1.8c0-22.9,0-45.7,0-68.6c0-1,0.9-1.9,1.9-2c2.2-0.3,3.3-0.4,5.5-0.6
				c1-0.1,1.9,0.6,1.9,1.6c0,23.2,0,46.4,0,69.6C526.1,439.6,525.2,440.4,524.2,440.4z"/>
			<path d="M561.2,388.3c-1,0.1-1.9-0.7-1.9-1.7c0-2.7,0-4,0-6.7c0-4.5-3.7-7.7-8.3-7.2c-4.4,0.5-7.9,4.5-7.9,8.8
				c0,14.2,0,28.4,0,42.6c0,4.4,3.7,7.8,8.3,7.7c4.4-0.1,7.9-3.9,7.9-8.3c0-6.8,0-10.3,0-17.1c-2.5,0.1-3.8,0.2-6.3,0.3
				c-1,0.1-1.9-0.8-1.9-1.8c0-2.2,0-3.3,0-5.4c0-1,0.9-1.9,1.9-2c5.5-0.4,8.2-0.5,13.7-0.9c1-0.1,1.9,0.7,1.9,1.8c0,10,0,15,0,25
				c0,9.7-7.8,17.5-17.3,17.5s-17.3-7.4-17.3-16.6c0-14,0-28.1,0-42.1c0-9.2,7.8-17.5,17.3-18.6c9.6-1.1,17.3,5.8,17.3,15.5
				c0,2.7,0,4.1,0,6.8c0,1-0.9,2-1.9,2.1C564.5,388.2,563.4,388.2,561.2,388.3C561.2,388.4,561.2,388.4,561.2,388.3z"/>
			<path d="M611.2,359.7c0,26.2,0,52.5,0,78.7c0,1.1-0.9,2-1.9,2c-2.3,0-3.5,0-5.9,0c-0.8,0-1.5-0.5-1.7-1.4
				c-5.2-16.1-10.5-32.2-15.9-48.2c0,15.9,0,31.7,0,47.6c0,1.1-0.9,2-1.9,2c-2.2,0-3.3,0-5.5,0c-1,0-1.9-0.9-1.9-1.9c0-25,0-50,0-75
				c0-1.1,0.9-2,1.9-2.2c2.3-0.3,3.5-0.4,5.9-0.7c0.8-0.1,1.5,0.4,1.7,1.1c5.4,15.8,10.7,31.7,15.9,47.5c0-16.2,0-32.5,0-48.7
				c0-1.1,0.9-2.1,1.9-2.2c2.2-0.3,3.3-0.4,5.5-0.6C610.3,357.7,611.2,358.6,611.2,359.7z"/>
			<path d="M653.7,383.1c0,1.2-0.9,2.2-1.9,2.3c-2.2,0.2-3.3,0.2-5.5,0.4c-1,0.1-1.9-0.8-1.9-2c0-4.5,0-6.8,0-11.3
				c0-5-3.7-8.7-8.3-8.2c-4.4,0.5-7.9,5-7.9,9.8c0,3,0,4.5,0,7.5c0,3.4,1.6,6.4,4.3,7.9c4.8,2.8,7.2,4.2,12.1,7
				c5.5,3.3,9,9.9,9,17.1c0,3.1,0,4.7,0,7.8c0,9.9-7.2,19.7-17.3,19.7c-9.8,0-17.2-9.2-17.2-19c0-4.3,0-6.5,0-10.8
				c0-1.1,0.9-2.1,1.9-2.1c2.2-0.1,3.3-0.1,5.5-0.2c1,0,1.9,0.9,1.9,2c0,4.4,0,6.6,0,11.1c0,4.9,3.7,8.8,8.3,8.7
				c4.4-0.2,7.9-4.4,7.9-9.3c0-3.1,0-4.6,0-7.6c0-3.5-1.6-6.7-4.3-8.3c-4.8-2.9-7.2-4.3-12.1-7.1c-5.5-3.2-9-9.4-9-16.3
				c0-3,0-4.5,0-7.5c0.2-10,7.2-19.3,17.3-20.8c9.5-1.4,17.9,8.9,17.2,17.9C653.7,376.3,653.7,378.5,653.7,383.1
				C653.7,383.1,653.7,383.1,653.7,383.1z"/>
		</g>
	</g>
	<g>
		<path d="M371,303.2c0.8,3.5,1.3,6.4,2.2,9.1c0.8,2.3,2.1,4.5,3.5,6.5c2.2,3.1,5.1,4.9,9.1,5.4c11.7,1.5,23.3,1.6,34.9-1.2
			c0.4-0.1,0.8-0.1,1.6-0.2c-1.2,1.7-2.2,3-3.1,4.4c-3.5,5.6-2.2,11.3,3.3,14.9c0.6,0.4,2,0.3,2.6-0.1c5.6-3.9,6.6-9.4,2.9-15.1
			c-0.8-1.3-1.8-2.4-2.8-3.9c4.3,0.7,8.3,1.4,12.3,1.9c9,1,17.9,0.6,26.8-1.1c3-0.6,5-2.9,6.7-5.2c3.3-4.3,4.5-9.3,5.1-15.2
			c0.4,1,0.6,1.5,0.8,2c0.1,0.5,0.2,1,0.3,1.5c1.3,7.5,4.7,13.7,11.3,17.8c4.3,2.7,9.2,3.1,14,3.6c6.6,0.7,13.1,0.2,19.6-1.1
			c7.9-1.7,11.8,0.1,15.6,7.2c2.6,4.9,5.4,9.3,11.4,10.7c-0.1,0.3-0.2,0.5-0.3,0.8c-44,10.4-83.2,16.4-124.9,16.4
			c-41.6,0-108.8-7.5-125.2-16.4c0.2-0.5,0.3-0.8,0.4-0.8c5.4-1.6,8.4-5.6,10.7-10.4c0.1-0.2,0.2-0.3,0.2-0.5
			c3.7-6.8,7.6-8.7,15.2-7.1c8.9,1.9,17.8,1.9,26.7,0.2c7.7-1.5,13-5.9,16.1-12.9c1.1-2.5,1.6-5.2,2.4-7.8
			C370.5,305.6,370.7,304.7,371,303.2z"/>
		<g>
			<path d="M594.9,340.7c3-3,35.9-44.6,16.3-71.9c-21.7-24.3-62.6-21.9-62.2-22.2c49.4-35.4,39.1-73.5,32-88.9
				c66.2,10.3,81.2,53.5,81.8,85.7C662.9,310.2,596.2,340.4,594.9,340.7z"/>
			<g>
				<path d="M511.2,229c-9.3-4.2-16.2-10.7-22.2-17.9c-6.5,2.2-12.3,4.8-18.1,6.4c-7.2,1.9-16.5,2.4-24.2-1.1
					c-0.5-0.2-1.1,0-1.1,0.3c0,0.1,0,0.2,0.1,0.2c13.8,16.2,37,27,57,29.9c20.8,3,38.1-3.7,38.7-17.1c0-0.1,0-0.3,0-0.4
					C531.1,233.6,519.1,232.6,511.2,229z"/>
				<path d="M537.2,138.5c-26.3-8-63.3-2.5-93.8,20.5c-0.2,0.1-0.3,0.3-0.3,0.4c-0.3,0.6,0.3,1.5,1.1,1.3
					c12.2-1.6,22.9,5.7,29.8,14.5c5.8,7.4,10.5,17,16.6,26c0.6,1,1.3,1.9,2,2.8c5.6,7.7,12.3,14.6,21.7,18.9
					c8.1,3.7,20.7,4.3,32.2-0.7c0.9-0.4,1.8-0.8,2.6-1.2c7.9-4.1,15.1-11.1,19.4-21.8C579.4,172.1,564.5,146.8,537.2,138.5z
					 M561.5,196.4c-4.7,11.6-12.9,17-18.9,19.4c-9.5,3.8-19.5,2.9-25.2,0.3c-13.1-6-20.4-18.3-27.6-30.3c-3.3-5.5-6.3-10.6-10-15.3
					c-5.2-6.6-11.5-11.6-18.2-14.5c23.8-13,51.2-17.2,73.3-10.4c12.2,3.7,21.6,11.2,26.3,21.2C565.6,175.8,565.7,186.1,561.5,196.4z
					"/>
				<path d="M535,145.7c-7.8-2.4-16.3-3.4-25-3.1c1.1,3.6,1.8,7.4,4.6,9.6c2.8,2.1,5.7,2.9,9.2,2.3c3.9-0.6,8.2-0.4,9.8,4.2
					c1.2,3.3-0.9,7.6-4.7,8.6c-3.4,0.9-6.7-1.4-9.8-3c-2.8-1.4-6.5-1.4-8.8,0.7c-2,1.8-1.7,5.1,0.4,6.8c2.1,1.6,4.9,1.9,7.5,2.1
					c2.7,0.2,5.6,0.4,7.8,1.9c2.6,1.8,3.8,5.4,2.7,8.4c-1,3-4.2,5.1-7.3,4.9c-3.4-0.2-6.2-2.7-8.5-5.2c-2.3-2.4-4.6-5.1-7.8-6.1
					c-3.1-1-6.4,1.1-6.7,4.3c-0.5,4.5,3.4,6.9,4.6,11.6c0.9,3.4-0.8,6.3-2.9,8.1c0-0.1-0.1-0.1-0.1-0.1c4.7,6,10.1,11.2,17.3,14.5
					c5.7,2.6,15.6,3.5,25.2-0.3c6.1-2.4,14.2-7.7,18.9-19.4c4.2-10.3,4.1-20.6-0.2-29.6C556.5,156.9,547.2,149.4,535,145.7z"/>
			</g>
		</g>
		<g>
			<path d="M251.6,340.7c-3-3-16.8-38.2,2.9-65.5c21.7-24.3,47-34.8,46.6-35c-40.2-21.8-42.3-59.7-29.4-84.1
				c-58.2,24.4-76.8,73.3-77.4,105.5C194.3,334.5,250.3,340.4,251.6,340.7z"/>
			<g>
				<path d="M335.3,229c9.3-4.2,16.2-10.7,22.2-17.9c6.5,2.2,12.3,4.8,18.1,6.4c7.2,1.9,16.5,2.4,24.2-1.1c0.5-0.2,1.1,0,1.1,0.3
					c0,0.1,0,0.2-0.1,0.2c-13.8,16.2-37,27-57,29.9c-20.8,3-38.1-3.7-38.7-17.1c0-0.1,0-0.3,0-0.4
					C315.5,233.6,327.4,232.6,335.3,229z"/>
				<path d="M278,199.2c4.3,10.7,11.4,17.7,19.4,21.8c0.9,0.5,1.8,0.9,2.6,1.2c11.5,5,24.1,4.4,32.2,0.7
					c9.4-4.3,16.2-11.2,21.7-18.9c0.7-0.9,1.3-1.9,2-2.8c6.1-9,10.9-18.6,16.6-26c6.9-8.8,17.6-16.1,29.8-14.5
					c0.8,0.1,1.4-0.7,1.1-1.3c-0.1-0.2-0.2-0.3-0.3-0.4c-30.5-23-67.5-28.5-93.8-20.5C282,146.8,267.1,172.1,278,199.2z
					 M285.2,166.8c4.7-9.9,14.1-17.4,26.3-21.2c22.1-6.8,49.5-2.6,73.3,10.4c-6.7,2.9-13,7.9-18.2,14.5c-3.6,4.6-6.7,9.8-10,15.3
					c-7.1,12-14.5,24.3-27.6,30.3c-5.7,2.6-15.6,3.5-25.2-0.3c-6.1-2.4-14.2-7.7-18.9-19.4C280.8,186.1,280.9,175.8,285.2,166.8z"/>
				<path d="M285.2,166.8c-4.3,9-4.4,19.3-0.2,29.6c4.7,11.6,12.9,17,18.9,19.4c9.5,3.8,19.5,2.9,25.2,0.3
					c7.2-3.3,12.7-8.5,17.3-14.5c0,0-0.1,0.1-0.1,0.1c-2.1-1.7-3.7-4.7-2.9-8.1c1.2-4.7,5.1-7.1,4.6-11.6c-0.3-3.2-3.6-5.3-6.7-4.3
					c-3.2,1-5.5,3.7-7.8,6.1c-2.3,2.5-5.1,5-8.5,5.2c-3.1,0.2-6.3-1.9-7.3-4.9c-1-3,0.1-6.6,2.7-8.4c2.2-1.6,5.1-1.7,7.8-1.9
					c2.6-0.2,5.5-0.5,7.5-2.1c2.1-1.7,2.4-5,0.4-6.8c-2.3-2.1-6-2.1-8.8-0.7c-3.1,1.6-6.4,3.9-9.8,3c-3.8-1-5.9-5.3-4.7-8.6
					c1.7-4.6,5.9-4.9,9.8-4.2c3.5,0.6,6.4-0.2,9.2-2.3c2.9-2.2,3.6-6,4.6-9.6c-8.7-0.2-17.2,0.8-25,3.1
					C299.3,149.4,290,156.9,285.2,166.8z"/>
			</g>
		</g>
		<circle cx="371.5" cy="278.3" r="10.7"/>
		<circle cx="476.1" cy="278.3" r="10.7"/>
	</g>
	<g>
		<text transform="matrix(1 0 0 1 325.0423 477.2644)" class="st10 st11">diseño gráfico y web</text>
		<g>
			<rect x="205.1" y="461.7" width="110.9" height="2.3"/>
			<rect x="541.2" y="461.7" width="110.9" height="2.3"/>
		</g>
	</g>
</g>
</svg>
